# xmcd
#
# Track frame offsets:
#	150
#	9269
#	21100
#	30553
#	41826
#	53649
#	65782
#	76115
#	87747
#	96407
#	108558
#	120967
#	132195
#	146027
#	155641
#	171693
#	181946
#	194293
#	206720
#	216913
#
# Disc length: 3010 seconds
#
# Revision: 0
# Processed by: cddbd v1.5.2PL0 Copyright (c) Steve Scherf et al.
# Submitted via: EasyCDDAExtractor 4.6.9.1
#
DISCID=220bc014
DTITLE=Elvis Presley - Heartbreak Hotel
DYEAR=2006
DGENRE=Pop
TTITLE0=Don't be cruel
TTITLE1=I want you, I need you, I love you
TTITLE2=Heartbreak Hotel
TTITLE3=Too much
TTITLE4=Just because
TTITLE5=Harbor Lights
TTITLE6=Good Rockin' tonight
TTITLE7=I don't care if the Sun don't shine
TTITLE8=That's all right, Mama
TTITLE9=Mil Cow Blues Boogie
TTITLE10=Blue Moon
TTITLE11=I'll never let you go
TTITLE12=Tomorrow Night
TTITLE13=Blue Moon of Kentucky
TTITLE14=I love you because
TTITLE15=You're a Heartbreaker
TTITLE16=Love me tender
TTITLE17=I'm left, you're right, she's gone
TTITLE18=Hount Dog
TTITLE19=Tutti Frutti
EXTD=
EXTT0=
EXTT1=
EXTT2=
EXTT3=
EXTT4=
EXTT5=
EXTT6=
EXTT7=
EXTT8=
EXTT9=
EXTT10=
EXTT11=
EXTT12=
EXTT13=
EXTT14=
EXTT15=
EXTT16=
EXTT17=
EXTT18=
EXTT19=
PLAYORDER=
